<?xml version="1.0" encoding="utf-8"?>
<!-- Generator: Adobe Illustrator 26.0.1, SVG Export Plug-In . SVG Version: 6.00 Build 0)  -->
<svg version="1.1" id="Layer_1" xmlns="http://www.w3.org/2000/svg" xmlns:xlink="http://www.w3.org/1999/xlink" x="0px" y="0px"
	 viewBox="0 0 24 24" style="enable-background:new 0 0 24 24;" xml:space="preserve">
<style type="text/css">
	.st0{fill:#41060B;}
</style>
<path class="st0" d="M4,19.3V21h16v-1.7L16.9,20L12,19l-5,1L4,19.3z M4,17.2L7.1,18l4.9-1l4.8,1l3.1-0.8V16c0-0.6-0.4-1-1-1H5
	c-0.6,0-1,0.4-1,1V17.2z M15,13h4c1.7,0,3,1.3,3,3v7H2v-7c0-1.7,1.3-3,3-3h4v-3h6V13z M13,13v-1h-2v1H13z M12,9.4c-1.7,0-3-1.3-3-3
	c0-1.1,1-2.9,3-5.4c2,2.5,3,4.3,3,5.4C15,8.1,13.7,9.4,12,9.4z M12,7.4c0.6,0,1-0.5,1-1.1c0-0.4-0.3-1-1-1.9c-0.7,0.9-1,1.5-1,1.9
	C11,6.9,11.4,7.4,12,7.4z"/>
</svg>
