<?xml version="1.0" encoding="utf-8"?>
<!-- Generator: Adobe Illustrator 26.0.1, SVG Export Plug-In . SVG Version: 6.00 Build 0)  -->
<svg version="1.1" id="Layer_1" xmlns="http://www.w3.org/2000/svg" xmlns:xlink="http://www.w3.org/1999/xlink" x="0px" y="0px"
	 viewBox="0 0 24 24" style="enable-background:new 0 0 24 24;" xml:space="preserve">
<style type="text/css">
	.st0{fill:#41060B;}
</style>
<path class="st0" d="M8.8,14.6c-1,0.5-1.7,1-2.1,1.6c-0.4,0.6-0.8,1.2-1.1,1.8c1.1,0.2,2,0.1,2.6-0.3c0.9-0.6,1.4-1.2,1.7-2
	L8.8,14.6z M10.2,13.1l1,1c0.7-0.4,1.5-1,2.2-1.8c1.1-1.3,3.1-3.6,5.8-6.9c0.1-0.1,0.1-0.2,0-0.3c-0.1-0.1-0.2-0.1-0.3,0
	c-3.3,2.7-5.6,4.6-6.9,5.8C11.2,11.6,10.6,12.4,10.2,13.1z M9.3,19.3c-1.6,1.1-3.8,1-6.6-0.3c0.7-1.3,1.5-2.7,2.4-3.9
	c0.7-1,1.7-1.8,3.2-2.4c0.5-1.1,1.3-2.2,2.5-3.2c1.3-1.2,3.6-3.1,6.9-5.8c0.9-0.8,2.3-0.6,3.1,0.3c0.7,0.8,0.7,2,0,2.8
	c-2.7,3.3-4.6,5.6-5.8,6.9c-1,1.1-2,1.9-3.1,2.4C11.5,17.3,10.6,18.4,9.3,19.3L9.3,19.3z"/>
</svg>
