<?xml version="1.0" encoding="utf-8"?>
<!-- Generator: Adobe Illustrator 26.0.1, SVG Export Plug-In . SVG Version: 6.00 Build 0)  -->
<svg version="1.1" id="Layer_1" xmlns="http://www.w3.org/2000/svg" xmlns:xlink="http://www.w3.org/1999/xlink" x="0px" y="0px"
	 viewBox="0 0 24 24" style="enable-background:new 0 0 24 24;" xml:space="preserve">
<style type="text/css">
	.st0{fill:#41060B;}
</style>
<path class="st0" d="M16,19H8v1.5C8,21.3,7.3,22,6.5,22h-1C4.7,22,4,21.3,4,20.5v-1.7c-1.2-0.4-2-1.6-2-2.8v-3
	c0-0.6,0.2-1.2,0.5-1.7l1.1-6.8C3.8,3.1,5.1,2,6.6,2h10.9c1.5,0,2.7,1.1,3,2.5l1.1,6.8c0.3,0.5,0.5,1.1,0.5,1.7v3
	c0,1.3-0.8,2.4-2,2.8v1.7c0,0.8-0.7,1.5-1.5,1.5h-1c-0.8,0-1.5-0.7-1.5-1.5L16,19L16,19z M5,17h14c0.6,0,1-0.4,1-1v-3
	c0-0.6-0.4-1-1-1H5c-0.6,0-1,0.4-1,1v3C4,16.6,4.4,17,5,17z M19.2,10l-0.8-5.2c-0.1-0.5-0.5-0.8-1-0.8H6.6c-0.5,0-0.9,0.4-1,0.8
	L4.7,10c0.1,0,0.2,0,0.3,0h14C19.1,10,19.2,10,19.2,10z M17.5,14c-0.3,0-0.5,0.2-0.5,0.5s0.2,0.5,0.5,0.5s0.5-0.2,0.5-0.5
	S17.8,14,17.5,14z M17.5,16c-0.8,0-1.5-0.7-1.5-1.5s0.7-1.5,1.5-1.5s1.5,0.7,1.5,1.5S18.3,16,17.5,16z M6.5,14C6.2,14,6,14.2,6,14.5
	S6.2,15,6.5,15S7,14.8,7,14.5S6.8,14,6.5,14z M6.5,16C5.7,16,5,15.3,5,14.5S5.7,13,6.5,13S8,13.7,8,14.5S7.3,16,6.5,16z M7.2,5.1
	c0.6,0,1,0.4,1,1v2c0,0.6-0.4,1-1,1s-1-0.4-1-1v-2C6.2,5.5,6.7,5.1,7.2,5.1z"/>
</svg>
