<?xml version="1.0" encoding="utf-8"?>
<!-- Generator: Adobe Illustrator 26.0.1, SVG Export Plug-In . SVG Version: 6.00 Build 0)  -->
<svg version="1.1" id="Layer_1" xmlns="http://www.w3.org/2000/svg" xmlns:xlink="http://www.w3.org/1999/xlink" x="0px" y="0px"
	 viewBox="0 0 24 24" style="enable-background:new 0 0 24 24;" xml:space="preserve">
<style type="text/css">
	.st0{fill:#41060B;}
</style>
<path class="st0" d="M4.8,9.1L5.6,15h12.7l0.9-6l-3.5,3L12,7.2L8.1,12C8.1,12,4.8,9.1,4.8,9.1z M16,9.1L20,5.8
	c0.4-0.4,1-0.3,1.4,0.1c0.2,0.2,0.3,0.5,0.2,0.8L20.1,17H3.9L2.4,6.7C2.3,6.2,2.7,5.6,3.2,5.6c0.3,0,0.6,0,0.8,0.2l3.8,3.3L11.2,5
	c0.3-0.4,1-0.5,1.4-0.1c0.1,0,0.1,0.1,0.2,0.2L16,9.1z M4,18h16v1c0,0.6-0.4,1-1,1H5c-0.6,0-1-0.4-1-1V18z"/>
</svg>
