<?xml version="1.0" encoding="utf-8"?>
<!-- Generator: Adobe Illustrator 26.0.1, SVG Export Plug-In . SVG Version: 6.00 Build 0)  -->
<svg version="1.1" id="Layer_1" xmlns="http://www.w3.org/2000/svg" xmlns:xlink="http://www.w3.org/1999/xlink" x="0px" y="0px"
	 viewBox="0 0 24 24" style="enable-background:new 0 0 24 24;" xml:space="preserve">
<style type="text/css">
	.st0{fill:#41060B;}
</style>
<path class="st0" d="M9.1,13.1c0.1-0.2,0.2-0.3,0.3-0.5C9.2,12.1,9,11.6,9,11C7.7,9.6,7.7,7.4,9,6c0-1.9,1.6-3.5,3.5-3.5
	c0.7-0.7,1.6-1.1,2.5-1.1c0.9,0,1.8,0.4,2.4,1c1.9,0,3.5,1.6,3.5,3.5c0,0,0,0,0,0c0.7,0.7,1,1.6,1.1,2.5c0,0.9-0.4,1.8-1,2.4V11
	c0,1.9-1.6,3.5-3.5,3.5c0,0,0,0-0.1,0c-0.6,0.6-1.5,1-2.5,1c-1,0-1.8-0.4-2.5-1c-0.6,0-1.2-0.1-1.7-0.4c-1,1.4-1,3.3,0.1,4.6
	l1.8,2.2c0.4,0.4,0.3,1.1-0.1,1.4c-0.4,0.4-1.1,0.3-1.4-0.1l0,0l-1.8-2.2c-0.4-0.5-0.7-1.1-1-1.7c-1.1,0.6-2.4,0.5-3.4-0.2
	c-1-0.7-1.8-2.9-2.5-6.5c3.1,0.2,5.2,0.6,6.2,1.3C8.9,12.9,9,13,9.1,13.1L9.1,13.1z M13.4,12.5l0.6,0.6c0.3,0.3,0.7,0.4,1.1,0.4
	c0.4,0,0.8-0.2,1-0.4l0.6-0.6l0.8,0c0.9,0,1.5-0.7,1.5-1.5l0-0.9l0.6-0.6c0.3-0.3,0.4-0.6,0.4-1c0-0.4-0.2-0.8-0.5-1.1l-0.6-0.6
	l0-0.8c0-0.8-0.7-1.5-1.5-1.5l-0.8,0L16,3.9c-0.3-0.3-0.7-0.4-1-0.4c-0.4,0-0.8,0.2-1.1,0.5l-0.6,0.6l-0.8,0c-0.8,0-1.5,0.7-1.5,1.5
	l0,0.8l-0.6,0.6C10.2,7.7,10,8.1,10,8.5c0,0.4,0.2,0.8,0.4,1.1l0.6,0.6V11c0,0.8,0.7,1.5,1.5,1.5C12.5,12.5,13.4,12.5,13.4,12.5z
	 M15,10.5c-1.1,0-2-0.9-2-2s0.9-2,2-2s2,0.9,2,2S16.1,10.5,15,10.5z M6.2,16.4c0.6,0.4,1.3,0.2,1.7-0.4c0.3-0.5,0.2-1.2-0.3-1.6
	c-0.4-0.3-1.2-0.5-2.5-0.7C5.6,15.3,6,16.3,6.2,16.4z"/>
</svg>
