<?xml version="1.0" encoding="utf-8"?>
<!-- Generator: Adobe Illustrator 26.0.1, SVG Export Plug-In . SVG Version: 6.00 Build 0)  -->
<svg version="1.1" id="Layer_1" xmlns="http://www.w3.org/2000/svg" xmlns:xlink="http://www.w3.org/1999/xlink" x="0px" y="0px"
	 viewBox="0 0 24 24" style="enable-background:new 0 0 24 24;" xml:space="preserve">
<style type="text/css">
	.st0{fill:#41060B;}
</style>
<path class="st0" d="M20,20V9.1l-8-4.8L4,9.1V20h4v-2.8c0-2.2,1.8-4,4-4s4,1.8,4,4V20H20z M14,22v-4.8c0-1.1-0.9-2-2-2s-2,0.9-2,2
	V22H4c-1.1,0-2-0.9-2-2V9.1c0-0.7,0.4-1.4,1-1.7l8-4.8c0.6-0.4,1.4-0.4,2.1,0l8,4.8c0.6,0.4,1,1,1,1.7V20c0,1.1-0.9,2-2,2H14z"/>
</svg>
