<svg id="Layer_1" data-name="Layer 1" xmlns="http://www.w3.org/2000/svg" viewBox="0 0 95.78 24.01"><g id="Petals" style="isolation:isolate"><g style="isolation:isolate"><path d="M29,20.5V19l1.91-.33V5.25L29,4.92V3.44h7.84a7.06,7.06,0,0,1,3.12.63,4.61,4.61,0,0,1,2,1.79,5.11,5.11,0,0,1,.68,2.68,5.14,5.14,0,0,1-.68,2.7,4.47,4.47,0,0,1-2,1.78,7.06,7.06,0,0,1-3.12.63H33.17v5l1.91.33V20.5Zm4.22-8.65h3.62a3.34,3.34,0,0,0,2.59-.93,3.32,3.32,0,0,0,.87-2.35,3.36,3.36,0,0,0-.87-2.37,3.32,3.32,0,0,0-2.59-1H33.17Z" fill="#fff"/><path d="M49.61,20.74a5.68,5.68,0,0,1-3.06-.8,5.3,5.3,0,0,1-2-2.23,7.4,7.4,0,0,1-.71-3.31v-.51a6.84,6.84,0,0,1,.75-3.23,5.86,5.86,0,0,1,2-2.25,4.75,4.75,0,0,1,2.7-.83,5.39,5.39,0,0,1,2.86.71,4.39,4.39,0,0,1,1.74,2,7.14,7.14,0,0,1,.59,3V14.7H46.22l0,.06a5.81,5.81,0,0,0,.42,2.16,3.4,3.4,0,0,0,1.17,1.48,3.09,3.09,0,0,0,1.83.54,5.9,5.9,0,0,0,2.06-.33,4.88,4.88,0,0,0,1.53-.92l.9,1.5a5.8,5.8,0,0,1-1.8,1.1A7.21,7.21,0,0,1,49.61,20.74Zm-3.32-7.85h5.85v-.3A4.07,4.07,0,0,0,51.82,11a2.59,2.59,0,0,0-1-1.13,2.87,2.87,0,0,0-1.6-.42,2.37,2.37,0,0,0-1.41.45,3.42,3.42,0,0,0-1,1.23,5.05,5.05,0,0,0-.54,1.75Z" fill="#fff"/><path d="M60.72,20.7a3,3,0,0,1-2.23-.83,3.62,3.62,0,0,1-.83-2.64V9.53h-2V7.82h2V4.76H60V7.82h2.75V9.53H60v7.7a2.09,2.09,0,0,0,.36,1.35,1.2,1.2,0,0,0,1,.43,6.36,6.36,0,0,0,.92-.08L63,18.8l.32,1.51a10.37,10.37,0,0,1-1.24.27A8.35,8.35,0,0,1,60.72,20.7Z" fill="#fff"/><path d="M68.9,20.74a4.25,4.25,0,0,1-3-1,3.57,3.57,0,0,1-1-2.73,3.46,3.46,0,0,1,.66-2.1,4.32,4.32,0,0,1,1.91-1.4,8.2,8.2,0,0,1,3-.49H72.7V11.81A2.32,2.32,0,0,0,72,10a2.84,2.84,0,0,0-2-.63,4.38,4.38,0,0,0-1.38.19,3.92,3.92,0,0,0-1.06.54l-.25,1.77H65.56V9a6,6,0,0,1,2-1,8.34,8.34,0,0,1,2.52-.36,5.42,5.42,0,0,1,3.62,1.11A3.85,3.85,0,0,1,75,11.84v6.1c0,.17,0,.33,0,.48a3.59,3.59,0,0,0,0,.47l1.23.13V20.5H73c-.07-.35-.12-.65-.16-.93a7.34,7.34,0,0,1-.08-.82A5.79,5.79,0,0,1,71,20.18,4.36,4.36,0,0,1,68.9,20.74Zm.34-1.93a4.12,4.12,0,0,0,2.1-.55,3.53,3.53,0,0,0,1.36-1.32v-2.3H70.35A3.33,3.33,0,0,0,68,15.4a2.31,2.31,0,0,0-.8,1.7,1.59,1.59,0,0,0,.52,1.27A2.36,2.36,0,0,0,69.24,18.81Z" fill="#fff"/><path d="M78,20.5V19l1.91-.33V4L78,3.71V2.22h4.21V18.69l1.91.33V20.5Z" fill="#fff"/><path d="M90.85,20.74a10.69,10.69,0,0,1-2.39-.25,14.71,14.71,0,0,1-2.37-.8l0-3h1.74l.44,1.81a7.41,7.41,0,0,0,1.27.4,6.92,6.92,0,0,0,1.33.12,3,3,0,0,0,2-.54,1.7,1.7,0,0,0,.61-1.34,1.6,1.6,0,0,0-.61-1.27A5.59,5.59,0,0,0,90.62,15a8.4,8.4,0,0,1-3.38-1.41,2.9,2.9,0,0,1-1.08-2.36,3,3,0,0,1,.6-1.85,4.13,4.13,0,0,1,1.66-1.3,6,6,0,0,1,2.49-.48,8,8,0,0,1,2.46.33,6.23,6.23,0,0,1,1.79.88l.12,2.9H93.54L93.17,10a3,3,0,0,0-1-.47,4.65,4.65,0,0,0-1.29-.16,2.85,2.85,0,0,0-1.76.5,1.52,1.52,0,0,0-.67,1.26,1.5,1.5,0,0,0,.19.78,1.69,1.69,0,0,0,.75.59A8,8,0,0,0,91,13a8.55,8.55,0,0,1,3.7,1.58,3.08,3.08,0,0,1,1,2.37,3.5,3.5,0,0,1-1.19,2.69A5.44,5.44,0,0,1,90.85,20.74Z" fill="#fff"/></g></g><path id="Path_238" data-name="Path 238" d="M7.43,13.24c.13-.18.26-.36.4-.53a4,4,0,0,1-.46-1.87,4,4,0,0,1,0-5.65,4,4,0,0,1,4-4A4,4,0,0,1,17,1.12a4,4,0,0,1,4,4v0A4.08,4.08,0,0,1,22.18,8a4,4,0,0,1-1.13,2.79v.07a4,4,0,0,1-4,4H17a4,4,0,0,1-5.61,0,4,4,0,0,1-1.92-.49,4.32,4.32,0,0,0,.14,5.28l2.05,2.5A1.15,1.15,0,0,1,9.88,23.6v0l-2-2.5a6.28,6.28,0,0,1-1.1-1.93A3.67,3.67,0,0,1,2.84,19Q1.18,17.78,0,11.47c3.59.2,5.94.68,7.05,1.46l.39.31Zm4.88-.69.67.67a1.7,1.7,0,0,0,2.4,0l.68-.66h1a1.72,1.72,0,0,0,1.74-1.7h0v-1l.66-.68a1.71,1.71,0,0,0,0-2.42l-.69-.68v-1A1.72,1.72,0,0,0,17,3.4H16l-.67-.64A1.71,1.71,0,0,0,13,2.8l-.67.69h-1a1.72,1.72,0,0,0-1.7,1.7v.93L9,6.8A1.72,1.72,0,0,0,9,9.22l.67.67v.95a1.72,1.72,0,0,0,1.72,1.72h.94Zm1.87-2.27A2.29,2.29,0,1,1,16.47,8a2.28,2.28,0,0,1-2.29,2.28Zm-10,6.79a1.38,1.38,0,0,0,1.92-.39,1.41,1.41,0,0,0-.33-1.88A8,8,0,0,0,2.91,14,7.59,7.59,0,0,0,4.15,17.07Z" fill="#fff"/></svg>